<?xml version="1.0" encoding="UTF-8" standalone="no"?>
<svg xmlns:dc="http://purl.org/dc/elements/1.1/" xmlns:cc="http://creativecommons.org/ns#" xmlns:rdf="http://www.w3.org/1999/02/22-rdf-syntax-ns#" xmlns:svg="http://www.w3.org/2000/svg" xmlns="http://www.w3.org/2000/svg" xmlns:sodipodi="http://sodipodi.sourceforge.net/DTD/sodipodi-0.dtd" xmlns:inkscape="http://www.inkscape.org/namespaces/inkscape" width="24" height="24" viewBox="0 0 24 24" id="svg6485" version="1.1" inkscape:version="0.91 r" sodipodi:docname="audio-cassette-music-retro-sound.svg">
  <sodipodi:namedview id="base" pagecolor="#ffffff" bordercolor="#666666" borderopacity="1.0" inkscape:pageopacity="0.0" inkscape:pageshadow="2" inkscape:zoom="9.4843752" inkscape:cx="15.256699" inkscape:cy="18.011848" inkscape:document-units="px" inkscape:current-layer="layer1" showgrid="true" units="px" inkscape:window-width="1309" inkscape:window-height="744" inkscape:window-x="57" inkscape:window-y="24" inkscape:window-maximized="1" inkscape:snap-global="true" showguides="true" inkscape:guide-bbox="true" inkscape:snap-bbox="true" inkscape:snap-bbox-edge-midpoints="true" inkscape:bbox-nodes="true">
    <inkscape:grid empspacing="4" id="grid4353" type="xygrid"/>
  </sodipodi:namedview>
  <defs id="defs6487">
    <inkscape:path-effect is_visible="true" id="path-effect6268" effect="spiro"/>
    <inkscape:path-effect effect="spiro" id="path-effect6264" is_visible="true"/>
    <inkscape:path-effect effect="spiro" id="path-effect6233" is_visible="true"/>
    <inkscape:path-effect effect="spiro" id="path-effect6205" is_visible="true"/>
    <inkscape:path-effect effect="spiro" id="path-effect6068" is_visible="true"/>
    <inkscape:path-effect is_visible="true" id="path-effect6025" effect="spiro"/>
    <inkscape:path-effect effect="spiro" id="path-effect5890" is_visible="true"/>
    <inkscape:path-effect effect="spiro" id="path-effect5868" is_visible="true"/>
    <inkscape:path-effect effect="spiro" id="path-effect5810" is_visible="true"/>
    <inkscape:path-effect effect="spiro" id="path-effect5662" is_visible="true"/>
    <inkscape:path-effect effect="spiro" id="path-effect5135" is_visible="true"/>
    <inkscape:path-effect effect="spiro" id="path-effect5075" is_visible="true"/>
    <inkscape:path-effect effect="spiro" id="path-effect5007" is_visible="true"/>
    <inkscape:path-effect is_visible="true" id="path-effect4472" effect="spiro"/>
    <inkscape:path-effect is_visible="true" id="path-effect4409" effect="spiro"/>
    <inkscape:path-effect effect="spiro" id="path-effect4365" is_visible="true"/>
    <inkscape:path-effect effect="spiro" id="path-effect4239" is_visible="true"/>
    <inkscape:path-effect is_visible="true" id="path-effect4223" effect="spiro"/>
    <inkscape:path-effect effect="spiro" id="path-effect4217" is_visible="true"/>
    <inkscape:path-effect is_visible="true" id="path-effect4213" effect="spiro"/>
    <inkscape:path-effect is_visible="true" id="path-effect5296" effect="spiro"/>
    <inkscape:path-effect is_visible="true" id="path-effect7060" effect="spiro"/>
    <inkscape:path-effect is_visible="true" id="path-effect4354" effect="spiro"/>
  </defs>
  
  <g transform="translate(0,-1028.3622)" id="layer1" inkscape:groupmode="layer" inkscape:label="Layer 1">
    <g id="g4996" transform="translate(36,0)"/>
    <g id="g5532">
      <path sodipodi:nodetypes="sssss" inkscape:connector-curvature="0" id="path4561" d="m 12,1028.3622 c -6.62589,0 -12.00002,5.3741 -12.00002,12 0,6.6259 5.37413,12 12.00002,12 6.62589,0 12.00002,-5.3741 12.00002,-12 0,-6.6259 -5.37413,-12 -12.00002,-12 z" style="color:#000000;font-style:normal;font-variant:normal;font-weight:normal;font-stretch:normal;font-size:medium;line-height:normal;font-family:sans-serif;text-indent:0;text-align:start;text-decoration:none;text-decoration-line:none;text-decoration-style:solid;text-decoration-color:#000000;letter-spacing:normal;word-spacing:normal;text-transform:none;direction:ltr;block-progression:tb;writing-mode:lr-tb;baseline-shift:baseline;text-anchor:start;white-space:normal;clip-rule:nonzero;display:inline;overflow:visible;visibility:visible;opacity:1;isolation:auto;mix-blend-mode:normal;color-interpolation:sRGB;color-interpolation-filters:linearRGB;solid-color:#000000;solid-opacity:1;fill:#45b29b;fill-opacity:1;fill-rule:nonzero;stroke:none;stroke-width:0.99999994;stroke-linecap:round;stroke-linejoin:round;stroke-miterlimit:4;stroke-dasharray:none;stroke-dashoffset:0;stroke-opacity:1;color-rendering:auto;image-rendering:auto;shape-rendering:auto;text-rendering:auto;enable-background:accumulate"/>
      <path id="path5352" transform="translate(0,1028.3622)" d="M 5 8 L 5 16 L 12.951172 23.951172 C 18.816446 23.489469 23.489467 18.816452 23.951172 12.951172 L 19 8 L 18 8 L 18 9 L 17 8 L 15 8 L 15 9 L 14 8 L 10 8 L 10 9 L 9 8 L 7 8 L 7 9 L 6 8 L 5 8 z " style="color:#000000;clip-rule:nonzero;visibility:visible;isolation:auto;mix-blend-mode:normal;color-interpolation:sRGB;color-interpolation-filters:linearRGB;solid-color:#000000;solid-opacity:1;fill:#368c7a;fill-opacity:1;fill-rule:nonzero;stroke:none;stroke-width:1;stroke-linecap:butt;stroke-linejoin:miter;stroke-miterlimit:4;stroke-dasharray:none;stroke-dashoffset:0;stroke-opacity:1;color-rendering:auto;image-rendering:auto;shape-rendering:auto;text-rendering:auto"/>
      <path style="color:#000000;clip-rule:nonzero;display:inline;overflow:visible;visibility:visible;opacity:1;isolation:auto;mix-blend-mode:normal;color-interpolation:sRGB;color-interpolation-filters:linearRGB;solid-color:#000000;solid-opacity:1;fill:#ffffff;fill-opacity:1;fill-rule:nonzero;stroke:none;stroke-width:1;stroke-linecap:butt;stroke-linejoin:miter;stroke-miterlimit:4;stroke-dasharray:none;stroke-dashoffset:0;stroke-opacity:1;color-rendering:auto;image-rendering:auto;shape-rendering:auto;text-rendering:auto;enable-background:accumulate" d="m 4.9999963,1036.3622 0,8 14.0000077,0 0,-8 -1,0 0,1 -0.999999,0 0,-1 -2,0 0,3 -0.5,0 -0.5,0 -4.000001,0 -0.4999997,0 -0.5,0 0,-3 -2.000005,0 0,1 -1.000003,0 0,-1 -1,0 z m 5.0000077,0 0,2 4,0 0,-2 -4,0 z m -2.4999997,3.5 a 1.5,1.5 0 0 1 1.5,1.5 1.5,1.5 0 0 1 -1.5,1.5 1.5,1.5 0 0 1 -1.500008,-1.5 1.5,1.5 0 0 1 1.500008,-1.5 z m 8.9999997,0 a 1.5,1.5 0 0 1 1.499999,1.5 1.5,1.5 0 0 1 -1.499999,1.5 1.5,1.5 0 0 1 -1.5,-1.5 1.5,1.5 0 0 1 1.5,-1.5 z m -6.5,1.5 4,0 0,1 -4,0 0,-1 z" id="rect5366" inkscape:connector-curvature="0"/>
    </g>
  </g>

	<metadata>
		<rdf:RDF xmlns:rdf="http://www.w3.org/1999/02/22-rdf-syntax-ns#" xmlns:rdfs="http://www.w3.org/2000/01/rdf-schema#" xmlns:dc="http://purl.org/dc/elements/1.1/">
			<rdf:Description about="https://iconscout.com/legal#licenses" dc:title="audio-cassette-music-retro-sound" dc:description="audio-cassette-music-retro-sound" dc:publisher="Iconscout" dc:date="2017-03-02" dc:format="image/svg+xml" dc:language="en">
				<dc:creator>
					<rdf:Bag>
						<rdf:li>Devendra Karkar</rdf:li>
					</rdf:Bag>
				</dc:creator>
			</rdf:Description>
		</rdf:RDF>
    </metadata></svg>
